<?xml version="1.0" encoding="UTF-8"?>
<svg width="470px" height="241px" viewBox="0 0 470 241" version="1.1" xmlns="http://www.w3.org/2000/svg" xmlns:xlink="http://www.w3.org/1999/xlink">
    <!-- Generator: Sketch 51 (57462) - http://www.bohemiancoding.com/sketch -->
    <title>售后统计-背景@1x</title>
    <desc>Created with Sketch.</desc>
    <defs>
        <path d="M439.415742,11.2 L439.415742,46.2 L428.225266,46.2 L428.225266,11.2 L347,11.2 L347,0 L439.415742,0 L439.415742,11.2 Z" id="path-1"></path>
        <filter x="-13.0%" y="-26.0%" width="126.0%" height="151.9%" filterUnits="objectBoundingBox" id="filter-2">
            <feOffset dx="0" dy="0" in="SourceAlpha" result="shadowOffsetOuter1"></feOffset>
            <feGaussianBlur stdDeviation="4" in="shadowOffsetOuter1" result="shadowBlurOuter1"></feGaussianBlur>
            <feColorMatrix values="0 0 0 0 0.289045741   0 0 0 0 0.751354976   0 0 0 0 0.849489796  0 0 0 1 0" type="matrix" in="shadowBlurOuter1"></feColorMatrix>
        </filter>
        <filter x="-12.4%" y="-24.9%" width="124.9%" height="149.8%" filterUnits="objectBoundingBox" id="filter-3">
            <feGaussianBlur stdDeviation="3.5" in="SourceAlpha" result="shadowBlurInner1"></feGaussianBlur>
            <feOffset dx="0" dy="0" in="shadowBlurInner1" result="shadowOffsetInner1"></feOffset>
            <feComposite in="shadowOffsetInner1" in2="SourceAlpha" operator="arithmetic" k2="-1" k3="1" result="shadowInnerInner1"></feComposite>
            <feColorMatrix values="0 0 0 0 0.289045741   0 0 0 0 0.849489796   0 0 0 0 0.830167421  0 0 0 1 0" type="matrix" in="shadowInnerInner1"></feColorMatrix>
        </filter>
    </defs>
    <g id="Page-1" stroke="none" stroke-width="1" fill="none" fill-rule="evenodd">
        <g id="0928平台管理员" transform="translate(-1449.000000, -142.000000)">
            <rect x="0" y="0" width="1920" height="1080"></rect>
            <g id="售后统计-背景" transform="translate(1450.000000, 150.000000)">
                <polygon id="Path-6-Copy-6" fill-opacity="0.699190444" fill="#75B2B0" fill-rule="nonzero" transform="translate(452.172820, 124.766938) scale(-1, 1) translate(-452.172820, -124.766938) " points="435.428571 108 468.917069 136.455998 468.917069 141.533876 435.428571 113.05347"></polygon>
                <polyline id="Path-19" stroke-opacity="0.570822011" stroke="#23788F" fill-rule="nonzero" points="453.950337 136 441.02381 147.307709 441.02381 205.398969"></polyline>
                <polygon id="Triangle-Copy-9" stroke-opacity="0.699190444" stroke="#75B2B0" points="20.9046112 46 1.77796506e-14 56.8875472 0 46"></polygon>
                <path d="M33.6285767,46.1858347 L0.764021132,64.571258 L0.764021132,227.034126 C0.764021132,229.850778 3.04736891,232.134126 5.86402113,232.134126 L400.121628,232.134126 L435.490488,214.05043 L435.490488,4.14706088 L185.609206,4.14706088 L131.86,46.1858347 L33.6285767,46.1858347 Z" id="Rectangle-2-Copy-5" stroke-opacity="0.699190444" stroke="#75B2B0" fill-opacity="0.8" fill="#080F0C"></path>
                <polygon id="Triangle-Copy-11" stroke-opacity="0.699190444" stroke="#75B2B0" points="413.047619 232.287547 433.95223 221.4 433.95223 232.287547"></polygon>
                <g id="Combined-Shape" fill-rule="nonzero">
                    <use fill="black" fill-opacity="1" filter="url(#filter-2)" xlink:href="#path-1"></use>
                    <use fill="#C3D9D9" xlink:href="#path-1"></use>
                    <use fill="black" fill-opacity="1" filter="url(#filter-3)" xlink:href="#path-1"></use>
                </g>
            </g>
        </g>
    </g>
</svg>