<?xml version="1.0" encoding="UTF-8"?>
<svg width="523px" height="203px" viewBox="0 0 523 203" version="1.1" xmlns="http://www.w3.org/2000/svg" xmlns:xlink="http://www.w3.org/1999/xlink">
    <!-- Generator: Sketch 51 (57462) - http://www.bohemiancoding.com/sketch -->
    <title>重大设备健康指数-背景@1x</title>
    <desc>Created with Sketch.</desc>
    <defs></defs>
    <g id="Page-1" stroke="none" stroke-width="1" fill="none" fill-rule="evenodd">
        <g id="0929工程部主管" transform="translate(-687.000000, -830.000000)">
            <rect x="0" y="0" width="1920" height="1079"></rect>
            <g id="重大设备健康指数-背景" transform="translate(687.000000, 831.000000)" fill-rule="nonzero">
                <polygon id="Path-18" stroke="#4C7A79" fill-opacity="0.5" fill="#080F0C" points="8 0 224.089165 0 261.402644 42.7221895 514.805288 42.7221895 514.805288 193.55909 8 193.55909"></polygon>
                <path d="M257.205828,21.5 L267.695058,32.5 L513.87702,32.5 L513.87702,21.5 L257.205828,21.5 Z" id="Rectangle-6" stroke-opacity="0.699190444" stroke="#75B2B0" fill-opacity="0.391927083" fill="#1C6C6C"></path>
                <g id="Group-7" transform="translate(450.000000, 21.000000)">
                    <rect id="Rectangle-17" fill-opacity="0.514294611" fill="#94DBE7" x="7" y="5" width="3" height="3"></rect>
                    <rect id="Rectangle-17-Copy-2" fill-opacity="0.514294611" fill="#94DBE7" x="21" y="5" width="3" height="3"></rect>
                    <rect id="Rectangle-17-Copy-8" fill-opacity="0.206238678" fill="#94D7E7" x="21" y="1" width="3" height="2"></rect>
                    <rect id="Rectangle-17-Copy-21" fill-opacity="0.206238678" fill="#94D7E7" x="7" y="0.996470714" width="3" height="2.00352929"></rect>
                    <rect id="Rectangle-17-Copy-4" fill-opacity="0.514294611" fill="#94DBE7" x="35" y="5" width="3" height="3"></rect>
                    <rect id="Rectangle-17-Copy-9" fill-opacity="0.206238678" fill="#94D7E7" x="35" y="1" width="3" height="2"></rect>
                    <rect id="Rectangle-17-Copy-6" fill-opacity="0.514294611" fill="#94DBE7" x="49" y="5" width="3" height="3"></rect>
                    <rect id="Rectangle-17-Copy-7" fill-opacity="0.514294611" fill="#94DBE7" x="56" y="5" width="3" height="3"></rect>
                    <rect id="Rectangle-17-Copy-10" fill-opacity="0.206238678" fill="#94D7E7" x="49" y="1" width="3" height="2"></rect>
                    <rect id="Rectangle-17-Copy" fill-opacity="0.514294611" fill="#94DBE7" x="14" y="5" width="3" height="3"></rect>
                    <rect id="Rectangle-17-Copy-11" fill-opacity="0.206238678" fill="#94D7E7" x="14" y="1" width="3" height="2"></rect>
                    <rect id="Rectangle-17-Copy-22" fill-opacity="0.206238678" fill="#94D7E7" x="0" y="1" width="3" height="2"></rect>
                    <rect id="Rectangle-17-Copy-3" fill-opacity="0.514294611" fill="#94DBE7" x="28" y="5" width="3" height="3"></rect>
                    <rect id="Rectangle-17-Copy-12" fill-opacity="0.206238678" fill="#94D7E7" x="28" y="1" width="3" height="2"></rect>
                    <rect id="Rectangle-17-Copy-5" fill-opacity="0.514294611" fill="#94DBE7" x="42" y="5" width="3" height="3"></rect>
                    <rect id="Rectangle-17-Copy-13" fill-opacity="0.206238678" fill="#94D7E7" x="42" y="1" width="3" height="2"></rect>
                    <rect id="Rectangle-17-Copy-14" fill-opacity="0.206238678" fill="#94D7E7" x="56" y="1" width="3" height="2"></rect>
                </g>
                <path d="M5.87058671,196.579309 L2.65766006,198.843674 L4.92202517,195.630747 C5.94866515,194.174039 5.94866515,192.229198 4.92202517,190.77249 L2.65766006,187.559563 L5.87058671,189.823929 C7.32729478,190.850569 9.27213604,190.850569 10.7288441,189.823929 L13.9417708,187.559563 L11.6774057,190.77249 C10.6507657,192.229198 10.6507657,194.174039 11.6774057,195.630747 L13.9417708,198.843674 L10.7288441,196.579309 C9.27213604,195.552669 7.32729478,195.552669 5.87058671,196.579309 Z" id="左下星星" fill="#538687" transform="translate(8.299715, 193.201619) rotate(-315.000000) translate(-8.299715, -193.201619) "></path>
                <path d="M511.873515,196.579309 L508.660588,198.843674 L510.924953,195.630747 C511.951593,194.174039 511.951593,192.229198 510.924953,190.77249 L508.660588,187.559563 L511.873515,189.823929 C513.330223,190.850569 515.275064,190.850569 516.731772,189.823929 L519.944699,187.559563 L517.680334,190.77249 C516.653694,192.229198 516.653694,194.174039 517.680334,195.630747 L519.944699,198.843674 L516.731772,196.579309 C515.275064,195.552669 513.330223,195.552669 511.873515,196.579309 Z" id="右下星星" fill="#538687" transform="translate(514.302644, 193.201619) rotate(-315.000000) translate(-514.302644, -193.201619) "></path>
                <path d="M511.549942,46.3567614 L508.337016,48.6211265 L510.601381,45.4081999 C511.628021,43.9514918 511.628021,42.0066506 510.601381,40.5499425 L508.337016,37.3370158 L511.549942,39.601381 C513.006651,40.6280209 514.951492,40.6280209 516.4082,39.601381 L519.621127,37.3370158 L517.356761,40.5499425 C516.330121,42.0066506 516.330121,43.9514918 517.356761,45.4081999 L519.621127,48.6211265 L516.4082,46.3567614 C514.951492,45.3301215 513.006651,45.3301215 511.549942,46.3567614 Z" id="右上星星" fill="#538687" transform="translate(513.979071, 42.979071) rotate(-315.000000) translate(-513.979071, -42.979071) "></path>
            </g>
        </g>
    </g>
</svg>