<?xml version="1.0" encoding="UTF-8"?>
<svg width="120px" height="501px" viewBox="0 0 120 501" version="1.1" xmlns="http://www.w3.org/2000/svg" xmlns:xlink="http://www.w3.org/1999/xlink">
    <!-- Generator: Sketch 51 (57462) - http://www.bohemiancoding.com/sketch -->
    <title>统计-左侧@1x</title>
    <desc>Created with Sketch.</desc>
    <defs>
        <linearGradient x1="0%" y1="0%" x2="100%" y2="0%" id="linearGradient-1">
            <stop stop-color="#8EDDDB" offset="0%"></stop>
            <stop stop-color="#50E9B4" offset="19.1225614%"></stop>
            <stop stop-color="#8EB0DE" offset="100%"></stop>
        </linearGradient>
    </defs>
    <g id="Page-1" stroke="none" stroke-width="1" fill="none" fill-rule="evenodd">
        <g id="0929酒店经理" transform="translate(-49.000000, -119.000000)">
            <rect x="0" y="0" width="1920" height="1080"></rect>
            <g id="统计-左侧" transform="translate(49.000000, 120.036760)">
                <path d="M4.25,144 L4.25,294.5" id="Path-31-Copy-3" stroke="#75B2B0" stroke-width="3" fill-rule="nonzero"></path>
                <g id="Group-5" transform="translate(0.000000, 53.000000)" fill-rule="nonzero">
                    <path d="M4.25,0 L4.25,25.6442646" id="Path-31" stroke="#75B2B0" stroke-width="3"></path>
                    <path d="M4.25,26 L4.25,40.5" id="Path-31-Copy" stroke="#4C7A79" stroke-width="3"></path>
                    <path d="M4.20833333,41 L4.20833333,55.5" id="Path-31-Copy-2" stroke-opacity="0.568953804" stroke="#4C7A79" stroke-width="3"></path>
                    <rect id="Rectangle-24" fill="#75B2B0" x="0" y="66" width="5" height="5"></rect>
                </g>
                <g id="Group-4" transform="translate(3.500000, 436.500000) scale(1, -1) translate(-3.500000, -436.500000) translate(1.000000, 401.000000)" fill-rule="nonzero">
                    <path d="M3.25,0 L3.25,25.6442646" id="Path-31-Copy-5" stroke="#75B2B0" stroke-width="3"></path>
                    <path d="M3.25,26 L3.25,40.5" id="Path-31-Copy-6" stroke="#4C7A79" stroke-width="3"></path>
                    <path d="M3.20833333,41 L3.20833333,55.5" id="Path-31-Copy-7" stroke-opacity="0.568953804" stroke="#4C7A79" stroke-width="3"></path>
                    <rect id="Rectangle-24-Copy" fill="#75B2B0" x="0" y="66" width="5" height="5"></rect>
                </g>
                <polygon id="Rectangle-25" fill="#75B2B0" fill-rule="nonzero" points="3 491 3 486 14.2302597 496 8.61512986 496"></polygon>
                <g id="Group-4" transform="translate(63.500000, 496.500000) scale(-1, -1) rotate(90.000000) translate(-63.500000, -496.500000) translate(61.000000, 461.000000)" fill-rule="nonzero">
                    <path d="M3.25,0 L3.25,26.5" id="Path-31-Copy-5" stroke="#75B2B0" stroke-width="3"></path>
                    <path d="M3.25,26 L3.25,41.5" id="Path-31-Copy-6" stroke="#4C7A79" stroke-width="3"></path>
                    <path d="M3.20833333,41 L3.20833333,55.5" id="Path-31-Copy-7" stroke-opacity="0.568953804" stroke="#4C7A79" stroke-width="3"></path>
                    <rect id="Rectangle-24-Copy" fill="#75B2B0" x="0" y="66" width="5" height="5"></rect>
                </g>
                <polygon id="Triangle-Copy-4" stroke="#75B2B0" points="18.9445731 0 4 7.77681944 4 2.83217467e-14"></polygon>
                <path d="M5.78885211,13.2550102 L5.78885211,27.2336077 L4,27.2336077 L4,13.09971 L4.44493956,13.09971 L27.8286102,0.00673260121 L27.8286102,0.998322807 L5.95643006,13.2550102 L5.78885211,13.2550102 Z M27.8513615,0 L119.082819,0 L119.082819,1.03418763 L27.8513615,1.03418763 L27.8513615,0 Z" id="Combined-Shape-Copy-4" fill="url(#linearGradient-1)"></path>
            </g>
        </g>
    </g>
</svg>